<?xml version="1.0" encoding="UTF-8" standalone="no"?>
<!-- Created with Inkscape (http://www.inkscape.org/) -->

<svg
   xmlns:dc="http://purl.org/dc/elements/1.1/"
   xmlns:cc="http://creativecommons.org/ns#"
   xmlns:rdf="http://www.w3.org/1999/02/22-rdf-syntax-ns#"
   xmlns:svg="http://www.w3.org/2000/svg"
   xmlns="http://www.w3.org/2000/svg"
   xmlns:sodipodi="http://sodipodi.sourceforge.net/DTD/sodipodi-0.dtd"
   xmlns:inkscape="http://www.inkscape.org/namespaces/inkscape"
   width="300"
   height="260"
   id="svg3078"
   version="1.1"
   inkscape:version="0.48.4 r9943 custom"
   sodipodi:docname="logo.svg">
  <defs
     id="defs3080">
    <clipPath
       clipPathUnits="userSpaceOnUse"
       id="clipPath4299">
      <path
         sodipodi:type="star"
         style="fill:#364e59;fill-opacity:1;stroke:none"
         id="path4301"
         sodipodi:sides="3"
         sodipodi:cx="157.14285"
         sodipodi:cy="280.93362"
         sodipodi:r1="463.7998"
         sodipodi:r2="404.35132"
         sodipodi:arg1="0.52644586"
         sodipodi:arg2="1.5736435"
         inkscape:flatsided="true"
         inkscape:rounded="0"
         inkscape:randomized="0"
         d="m 558.1434,513.97615 -803.32157,-2.28713 403.6415,-694.55332 z"
         transform="matrix(0.75674922,0,0,0.75674922,-1109.7075,-369.54091)" />
    </clipPath>
    <clipPath
       clipPathUnits="userSpaceOnUse"
       id="clipPath3065">
      <path
         sodipodi:type="star"
         style="fill:#364e59;fill-opacity:1;stroke:none"
         id="path3067"
         sodipodi:sides="3"
         sodipodi:cx="157.14285"
         sodipodi:cy="280.93362"
         sodipodi:r1="463.7998"
         sodipodi:r2="404.35132"
         sodipodi:arg1="0.52644586"
         sodipodi:arg2="1.5736435"
         inkscape:flatsided="true"
         inkscape:rounded="0"
         inkscape:randomized="0"
         d="m 558.1434,513.97615 -803.32157,-2.28713 403.6415,-694.55332 z"
         transform="matrix(0.75674922,0,0,0.75674922,-1109.7075,-369.54091)" />
    </clipPath>
  </defs>
  <sodipodi:namedview
     id="base"
     pagecolor="#ffffff"
     bordercolor="#666666"
     borderopacity="1.0"
     inkscape:pageopacity="0.0"
     inkscape:pageshadow="2"
     inkscape:zoom="1"
     inkscape:cx="221.03566"
     inkscape:cy="106.70313"
     inkscape:document-units="px"
     inkscape:current-layer="layer1"
     showgrid="false"
     inkscape:window-width="1280"
     inkscape:window-height="752"
     inkscape:window-x="0"
     inkscape:window-y="22"
     inkscape:window-maximized="0" />
  <metadata
     id="metadata3083">
    <rdf:RDF>
      <cc:Work
         rdf:about="">
        <dc:format>image/svg+xml</dc:format>
        <dc:type
           rdf:resource="http://purl.org/dc/dcmitype/StillImage" />
        <dc:title />
      </cc:Work>
    </rdf:RDF>
  </metadata>
  <g
     inkscape:label="Layer 1"
     inkscape:groupmode="layer"
     id="layer1"
     transform="translate(0,-792.36218)">
    <g
       id="g3125"
       transform="matrix(0.56363786,0,0,0.56363786,-62.132431,765.06449)">
      <path
         sodipodi:type="star"
         style="fill:#fc4349;fill-opacity:1;stroke:none"
         id="path4471"
         sodipodi:sides="64"
         sodipodi:cx="-990.80109"
         sodipodi:cy="-175.36961"
         sodipodi:r1="27.12435"
         sodipodi:r2="189.10007"
         sodipodi:arg1="0.56002152"
         sodipodi:arg2="0.51957246"
         inkscape:flatsided="false"
         inkscape:rounded="0"
         inkscape:randomized="0"
         d="m -967.82015,-160.96104 141.16389,79.481324 -142.68684,-77.298174 132.69361,92.935074 -134.42321,-90.911724 122.94543,105.493822 -124.86502,-103.649732 112.01321,117.036593 -114.10431,-115.389543 100.00224,127.452245 -102.24472,-126.018095 87.0282,136.640467 -89.40044,-135.433017 73.21602,144.51276 -75.6952,-143.54364 58.69875,150.9933112 -61.26097,-150.2718712 43.61616,156.0197262 -46.23677,-155.5528962 28.11353,159.54358 -30.76727,-159.33586 12.34015,161.53094 -15.00147,-161.58433 -3.55207,161.962666 0.9088,-162.276666 -19.41005,160.834616 16.81028,-161.406176 -35.08118,158.1576259 32.55,-158.9812659 -50.4144,153.9575018 47.976,-155.0252718 -65.2621,148.2746753 62.9402,-149.5763053 -79.4813,141.163888 77.2982,-142.686838 -92.9351,132.693617 90.9117,-134.423217 -105.4938,122.945431 103.6498,-124.865021 -117.0366,112.013209 115.3895,-114.104309 -127.4522,100.002239 126.018,-102.244709 -136.6404,87.028194 135.433,-89.400444 -144.5128,73.216025 143.5437,-75.695195 -150.9933,58.69874 150.2718,-61.26097 -156.0197,43.61616 155.5529,-46.23676 -159.5436,28.11353 159.3359,-30.76727 -161.531,12.34015 161.5844,-15.00147 -161.9627,-3.55208 162.2767,0.9088 -160.8346,-19.41008 161.4061,16.81031 -158.1576,-35.08117 158.9813,32.54995 -153.9575,-50.41441 155.0253,47.9761 -148.2747,-65.26212 149.5763,62.94021 -141.1639,-79.48132 142.6868,77.29818 -132.6936,-92.93508 134.4232,90.91172 -122.9454,-105.49382 124.865,103.64974 -112.0132,-117.0366 114.1043,115.38955 -100.0022,-127.45225 102.2447,126.01809 -87.0282,-136.64046 89.4004,135.43301 -73.216,-144.51276 75.69521,143.54365 -58.69871,-150.99332 61.26094,150.27187 -43.61614,-156.01972 46.23674,155.55289 -28.11354,-159.54358 30.76728,159.33586 -12.34018,-161.53094 15.0015,161.58434 3.55208,-161.96267 -0.9088,162.27666 19.41008,-160.83461 -16.81031,161.40618 35.08117,-158.15763 -32.54995,158.98126 50.41441,-153.9575 -47.9761,155.02527 65.26212,-148.27467 -62.94021,149.5763 79.48132,-141.16389 -77.29818,142.68684 92.93508,-132.69361 -90.91172,134.42321 105.49382,-122.94543 -103.64974,124.86502 117.0366,-112.01321 -115.38955,114.10431 127.45225,-100.00224 -126.01809,102.24472 136.64046,-87.0282 -135.43301,89.40044 144.51276,-73.21602 -143.54365,75.6952 150.99332,-58.69875 -150.27187,61.26097 156.01972,-43.61616 -155.55289,46.23677 159.54358,-28.11353 -159.33586,30.76727 161.53094,-12.34015 -161.58434,15.00147 161.96267,3.55207 -162.27666,-0.9088 160.83461,19.41009 -161.40618,-16.81032 158.15763,35.08117 -158.98126,-32.54994 153.9575,50.4144 -155.02527,-47.9761 148.27467,65.262122 z"
         transform="matrix(0.87554745,0,0,0.87554745,1244.2839,492.93404)"
         clip-path="url(#clipPath4299)" />
      <path
         clip-path="url(#clipPath4299)"
         transform="matrix(0.87554745,0,0,0.87554745,1244.2839,492.93404)"
         d="M -959.86067,-155.97061 -691.274,16.218827 -961.9111,-153.03133 -711.49525,44.655065 -964.23974,-150.30718 -734.40638,70.972345 -966.82419,-147.8244 -759.78672,94.917218 -969.63955,-145.60689 l 182.24769,261.86597 -185.26685,-259.93509 155.70277,278.46841 -158.89664,-276.84276 127.65833,292.38905 -130.99617,-291.08428 98.38448,303.49382 -101.83414,-302.5225 68.16314,311.67578 -71.69139,-311.04726 37.28535,316.85613 -40.85822,-316.57647 6.04848,318.98498 -9.63155,-319.05687 -25.24663,318.04184 21.68785,-318.46458 -56.29865,314.03578 52.7985,-314.80531 -86.8085,307.00538 83.4005,-308.11428 -116.4822,297.01835 113.1994,-298.45595 -145.0342,284.17087 141.9081,-285.92332 -172.1894,268.58668 169.2501,-270.6371 -197.6864,250.41584 194.9623,-252.74449 -221.2795,229.833366 218.7967,-232.417816 -242.7416,207.037471 240.5241,-209.852831 -261.866,182.247692 259.9351,-185.266842 -278.4684,155.7027602 276.8428,-158.8966402 -292.3891,127.658335 291.0843,-130.996175 -303.4938,98.384488 302.5225,-101.834148 -311.6758,68.163147 311.0473,-71.691397 -316.8562,37.28535 316.5765,-40.85821 -318.985,6.04847 319.0569,-9.63155 -318.0419,-25.24664 318.4646,21.68787 -314.0358,-56.29863 314.8054,52.79842 -307.0054,-86.80842 308.1143,83.4005 -297.0184,-116.4822 298.456,113.19938 -284.1709,-145.03419 285.9233,141.90809 -268.5867,-172.18943 270.6371,169.25015 -250.4158,-197.68639 252.7445,194.96224 -229.8334,-221.27952 232.4178,218.79674 -207.0375,-242.74161 209.8529,240.5241 -182.2477,-261.86597 185.2668,259.93509 -155.7027,-278.46841 158.8966,276.84276 -127.6583,-292.38905 130.9961,291.08428 -98.3844,-303.49382 101.83411,302.5225 -68.16311,-311.67578 71.69136,311.04727 -37.28536,-316.85614 40.85822,316.57647 -6.04847,-318.98498 9.63155,319.05687 25.24664,-318.04184 -21.68787,318.46459 56.29863,-314.03578 -52.79842,314.8053 86.80842,-307.00538 -83.4005,308.11429 116.4822,-297.01835 -113.19938,298.45595 145.03419,-284.17088 -141.90809,285.92332 172.18943,-268.58667 -169.25015,270.6371 197.68639,-250.41585 -194.96224,252.74449 221.27952,-229.83336 -218.79674,232.41781 242.74161,-207.03747 -240.5241,209.85283 261.86597,-182.24769 -259.93509,185.26685 278.46841,-155.70277 -276.84276,158.89664 292.38905,-127.65833 -291.08428,130.99617 303.49382,-98.38448 -302.5225,101.83414 311.67578,-68.16314 -311.04727,71.69139 316.85614,-37.28535 -316.57647,40.85822 318.98498,-6.04848 -319.05687,9.63155 318.04184,25.24664 -318.46459,-21.68786 314.03578,56.29862 -314.8053,-52.79842 307.00538,86.808419 -308.11429,-83.400499 297.01835,116.482203 -298.45595,-113.199383 284.17088,145.034198 z"
         inkscape:randomized="0"
         inkscape:rounded="0"
         inkscape:flatsided="false"
         sodipodi:arg2="0.56905523"
         sodipodi:arg1="0.56002152"
         sodipodi:r2="355.55957"
         sodipodi:r1="36.518906"
         sodipodi:cy="-175.36961"
         sodipodi:cx="-990.80109"
         sodipodi:sides="64"
         id="path4473"
         style="fill:#2c3e50;fill-opacity:1;stroke:none"
         sodipodi:type="star" />
      <path
         sodipodi:type="star"
         style="fill:#2c3e50;fill-opacity:1;stroke:none"
         id="path4475"
         sodipodi:sides="6"
         sodipodi:cx="-402.85715"
         sodipodi:cy="198.07648"
         sodipodi:r1="299.29544"
         sodipodi:r2="150.59744"
         sodipodi:arg1="0.52664422"
         sodipodi:arg2="1.050243"
         inkscape:flatsided="true"
         inkscape:rounded="0"
         inkscape:randomized="0"
         d="m -144.11664,348.51287 -259.65199,148.85766 -258.74051,-150.4364 0.91148,-299.29405 259.652,-148.85766 258.74051,150.436401 z"
         inkscape:transform-center-x="43.834225"
         inkscape:transform-center-y="34.076897"
         transform="matrix(0,-0.30158223,0.30158223,0,316.62665,225.80833)" />
      <text
         xml:space="preserve"
         style="font-size:98.12301636px;font-style:normal;font-variant:normal;font-weight:bold;font-stretch:normal;text-align:start;line-height:125%;letter-spacing:0px;word-spacing:0px;writing-mode:lr-tb;text-anchor:start;fill:#fc4349;fill-opacity:1;stroke:none;font-family:DIN Alternate;-inkscape-font-specification:DIN Alternate Bold"
         x="324.52261"
         y="355.09097"
         id="text4479"
         sodipodi:linespacing="125%"><tspan
           sodipodi:role="line"
           id="tspan4481"
           x="324.52261"
           y="355.09097">db</tspan></text>
      <text
         sodipodi:linespacing="125%"
         id="text4483"
         y="398.16037"
         x="328.37509"
         style="font-size:54.66029358px;font-style:normal;font-variant:normal;font-weight:bold;font-stretch:normal;text-align:start;line-height:125%;letter-spacing:0px;word-spacing:0px;writing-mode:lr-tb;text-anchor:start;fill:#fc4349;fill-opacity:1;stroke:none;font-family:DIN Alternate;-inkscape-font-specification:DIN Alternate Bold"
         xml:space="preserve"><tspan
           dx="0 0.43204078 1.2961223 -1.7281631"
           y="398.16037"
           x="328.37509"
           id="tspan4485"
           sodipodi:role="line">quiz</tspan></text>
    </g>
  </g>
</svg>
