<svg xmlns="http://www.w3.org/2000/svg" width="300" height="260">
    <defs>
        <clipPath id="a">
            <path d="M-687.333 19.41l-607.913-1.73 305.456-525.603z" fill="#364e59"/>
        </clipPath>
    </defs>
    <path d="M-967.82-160.96l141.164 79.48-142.687-77.298 132.694 92.935-134.422-90.912L-848.127-51.26l-124.865-103.65L-860.98-37.874l-114.103-115.39L-875.08-25.81l-102.246-126.02 87.028 136.64-89.4-135.432L-906.482-6.11l-75.695-143.543L-923.48 1.34l-61.26-150.27 43.617 156.018-46.237-155.552 28.113 159.543-30.767-159.338 12.34 161.53-15-161.583-3.553 161.962.91-162.277-19.412 160.835 16.813-161.406-35.08 158.158 32.55-158.98-50.416 153.956 47.976-155.025-65.262 148.275 62.94-149.577-79.48 141.166 77.298-142.687-92.935 132.693 90.912-134.423-105.494 122.944 103.65-124.865-117.036 112.01 115.39-114.103L-1140.36-59.65l126.018-102.244-136.64 87.028 135.433-89.4-144.51 73.215 143.543-75.697-150.993 58.7 150.27-61.262-156.02 43.617 155.554-46.237-159.544 28.115 159.336-30.767-161.53 12.34 161.583-15.002-161.964-3.552 162.276.91-160.834-19.41 161.405 16.81-158.158-35.082 158.982 32.55-153.96-50.414 155.026 47.976-148.274-65.262 149.575 62.94-141.164-79.482 142.688 77.3-132.693-92.936 134.423 90.91-122.945-105.493 124.865 103.65-112.013-117.034 114.104 115.39-100-127.453 102.243 126.018-87.03-136.64 89.402 135.434-73.216-144.513 75.694 143.544-58.7-150.993 61.262 150.273-43.616-156.02 46.238 155.553-28.114-159.543 30.768 159.335-12.34-161.53 15 161.584 3.553-161.962-.91 162.277 19.41-160.835-16.81 161.406 35.082-158.157-32.55 158.98 50.415-153.956-47.976 155.025 65.262-148.276-62.94 149.576 79.48-141.164-77.297 142.686 92.937-132.693-90.912 134.42 105.494-122.944-103.65 124.865 117.036-112.013-115.39 114.105 127.452-100.003-126.018 102.244 136.64-87.028-135.433 89.4 144.512-73.216-143.545 75.697 150.993-58.7-150.273 61.262 156.02-43.618-155.553 46.236 159.544-28.114-159.336 30.767 161.53-12.34-161.584 15 161.963 3.555-162.277-.91 160.835 19.41-161.407-16.81 158.16 35.082-158.98-32.55 153.956 50.413-155.026-47.976 148.276 65.262z" transform="translate(639.193 250.54) scale(.4935)" clip-path="url(#a)" fill="#fc4349"/>
    <path clip-path="url(#a)" transform="translate(639.193 250.54) scale(.4935)" d="M-959.86-155.97l268.586 172.19-270.637-169.25 250.414 197.685-252.745-194.962 229.833 221.28-232.418-218.797 207.037 242.74-209.853-240.523 182.247 261.866-185.267-259.937 155.704 278.468-158.897-276.84 127.66 292.39-130.997-291.087 98.384 303.494-101.834-302.522 68.163 311.676-71.69-311.047 37.284 316.856-40.858-316.577 6.046 318.985-9.63-319.058-25.248 318.042 21.687-318.465-56.3 314.035 52.8-314.805-86.81 307.005 83.402-308.114-116.483 297.02 113.2-298.457-145.035 284.17 141.907-285.92-172.19 268.586 169.25-270.637-197.686 250.415 194.963-252.744-221.28 229.834 218.798-232.418-242.74 207.038 240.523-209.853-261.863 182.25 259.935-185.267-278.468 155.703 276.843-158.897-292.39 127.656 291.085-130.996-303.494 98.386 302.525-101.835-311.676 68.166 311.046-71.692-316.856 37.285 316.575-40.86-318.985 6.05 319.057-9.632-318.042-25.246 318.465 21.688-314.036-56.298 314.806 52.798-307.006-86.808 308.114 83.4-297.018-116.482 298.456 113.2-284.17-145.035 285.922 141.908-268.586-172.188 270.637 169.25-250.418-197.686 252.745 194.96-229.834-221.28 232.418 218.798-207.037-242.74 209.853 240.523-182.247-261.865 185.265 259.935-155.702-278.47 158.896 276.844-127.66-292.388 130.997 291.084-98.384-303.493 101.834 302.522-68.163-311.677 71.69 311.047-37.284-316.857 40.86 316.577-6.05-318.985 9.632 319.057 25.247-318.043-21.69 318.463 56.3-314.034-52.8 314.804 86.81-307.004-83.4 308.114 116.48-297.018-113.2 298.456 145.035-284.17-141.908 285.922 172.19-268.587-169.25 270.637 197.686-250.415-194.963 252.74 221.28-229.834-218.796 232.417 242.742-207.037-240.524 209.853 261.866-182.25-259.935 185.267 278.468-155.703-276.84 158.897 292.39-127.657-291.086 130.996 303.494-98.386-302.523 101.834 311.676-68.164-311.046 71.692 316.856-37.286-316.58 40.86 318.985-6.048-319.056 9.632 318.04 25.246-318.463-21.688 314.036 56.3-314.806-52.8 307.006 86.81-308.115-83.402 297.018 116.483-298.456-113.2 284.17 145.034z" fill="#2c3e50"/>
    <path d="M175.572 124.474l25.303 44.136-25.572 43.982-50.875-.155L99.125 168.3l25.572-43.98z" fill="#2c3e50"/>
    <path d="M141.198 169.902v2.943h5.644v-39.373h-5.644v14.313c-1.044-.99-2.134-1.8-3.268-2.43-1.224-.595-2.556-.892-3.996-.892-3.42.09-5.924 1.315-7.508 3.673-.774.882-1.287 2.043-1.54 3.484-.305 1.422-.458 3.816-.458 7.183 0 3.313.153 5.69.46 7.13.25 1.512.764 2.71 1.538 3.59.846 1.08 1.9 1.945 3.16 2.593 1.206.666 2.655 1.018 4.348 1.054 2.988-.072 5.41-1.162 7.264-3.268m-5.536-19.795c1.332 0 2.385.26 3.16.784.774.523 1.305 1.207 1.593 2.053.36.846.603 1.764.73 2.754.035.99.053 2.026.053 3.106 0 .99-.018 1.998-.054 3.024-.126 1.045-.37 1.99-.73 2.836-.287.846-.818 1.53-1.593 2.052-.773.54-1.826.81-3.158.81-1.332 0-2.35-.252-3.052-.756-.774-.523-1.34-1.19-1.7-2-.343-.845-.568-1.8-.676-2.86-.108-1.01-.162-2.045-.162-3.107 0-1.116.054-2.205.162-3.268.108-.99.333-1.908.675-2.754.36-.845.926-1.51 1.7-1.998.702-.45 1.72-.675 3.052-.675M153.16 172.845h5.645v-2.943c1.872 2.106 4.285 3.196 7.237 3.268 1.747-.036 3.24-.388 4.483-1.054 1.26-.648 2.278-1.512 3.052-2.592.774-.882 1.305-2.08 1.593-3.592.27-1.44.405-3.816.405-7.13 0-3.366-.135-5.76-.405-7.182-.288-1.44-.82-2.602-1.593-3.484-1.585-2.358-4.096-3.583-7.535-3.673-1.44 0-2.727.297-3.86.892-1.226.63-2.35 1.44-3.377 2.43v-14.313h-5.644v39.373m11.18-22.738c1.333 0 2.386.225 3.16.675.775.487 1.324 1.153 1.648 2 .36.845.603 1.763.73 2.753.035 1.063.053 2.152.053 3.268 0 1.062-.017 2.097-.053 3.106-.126 1.06-.37 2.015-.73 2.86-.323.81-.872 1.477-1.646 2-.774.503-1.827.756-3.16.756-1.26 0-2.258-.27-2.996-.81-.775-.523-1.342-1.207-1.702-2.053-.342-.846-.567-1.79-.675-2.836-.108-1.026-.162-2.034-.162-3.024 0-1.08.054-2.115.162-3.106.108-.99.333-1.908.675-2.754.36-.846.927-1.53 1.702-2.052.738-.522 1.737-.783 2.997-.783" fill="#fc4349"/>
    <path d="M133.77 195.45v7.99h3.143v-21.934h-3.144v1.625c-1.034-1.163-2.377-1.77-4.032-1.82-1.916.05-3.315.733-4.197 2.046-.43.492-.716 1.14-.857 1.94-.17.793-.255 2.137-.255 4.033 0 1.844.085 3.168.255 3.97.14.802.426 1.46.858 1.97.472.602 1.06 1.084 1.76 1.445.673.37 1.485.566 2.438.586.792 0 1.53-.174 2.21-.525.633-.32 1.24-.762 1.82-1.324m-3.082-1.293c-.743 0-1.31-.14-1.7-.42-.432-.292-.748-.663-.948-1.114-.19-.47-.316-.993-.376-1.565-.06-.56-.09-1.138-.09-1.73 0-.62.03-1.228.09-1.82.06-.59.185-1.113.376-1.564.2-.472.516-.843.948-1.113.39-.25.957-.375 1.7-.376.742 0 1.328.146 1.76.437.43.292.727.673.887 1.144.21.47.346.983.406 1.534.02.582.03 1.17.03 1.76 0 .552-.01 1.104-.03 1.655-.06.582-.196 1.108-.407 1.58-.16.47-.456.852-.887 1.143-.432.3-1.018.45-1.76.45M141.234 191.886c.02 1.765.596 3.1 1.73 4 1.043.924 2.21 1.395 3.505 1.415 1.663 0 3.012-.615 4.045-1.85h.06v1.67h3.145v-15.614h-3.144v9.297c0 1.053-.29 1.875-.873 2.467-.572.592-1.31.887-2.21.887-.904 0-1.646-.295-2.228-.887-.59-.592-.887-1.414-.887-2.467v-9.297h-3.144v10.38M158.602 197.12h3.144v-15.614h-3.144v15.615m0-18.788h3.144v-3.144h-3.144v3.144M163.93 197.12h11.645v-2.963h-7.823l7.823-10.154v-2.497h-11.223v2.768h7.402l-7.823 10.35v2.497" fill="#fc4349"/>
</svg>
